<svg xmlns="http://www.w3.org/2000/svg" viewBox="0 0 402.03 130.84"><defs><style>.cls-1{fill:#0f6594;}.cls-2{fill:#fff;}.cls-3{fill:#bc3234;}.cls-4{fill:#f5eb86;}.cls-5{fill:#00904d;}</style></defs><title>subAsset 1log</title><g id="Layer_2" data-name="Layer 2"><g id="Capa_1" data-name="Capa 1"><path class="cls-1" d="M100.88,33.25H96.29l-1.6-4.37H86.43l-1.6,4.37H80.77l7.06-20.13h6ZM87.16,26.06h6.75l-3.32-9.28h-.1Z"/><path class="cls-1" d="M112.08,22.36h8v6c0,3.32-2.92,5.22-8.56,5.22S103,31.65,103,28.33V17.55c0-3.32,2.92-5.21,8.56-5.21s8.56,1.9,8.56,5.21V19h-3.61V17.34c0-1.48-3-2.05-4.79-2.05s-4.19.56-4.19,2.05v11.2c0,1.48,2.36,2,4.19,2s4.79-.53,4.79-2V24.72h-4.43Z"/><path class="cls-1" d="M128.92,21.85h9.92v3h-9.92v5.47h9.92v3H125.6V13.11h13.24v3h-9.92Z"/><path class="cls-1" d="M159,13.11h4V33.24h-5.9L147.62,16.4V33.24h-4.06V13.11h6L159,29.16Z"/><path class="cls-1" d="M189.09,13.11H193V33.24h-3.93Z"/><path class="cls-1" d="M83.18,37.79H95.63c7.49,0,10.56,2.33,10.56,6.6V57.9c0,4.27-3.07,6.6-10.56,6.6H83.18Zm4.46,3.81V60.68h9.67c2.38,0,3.81-.69,3.81-2.59V44.2c0-1.91-1.43-2.59-3.81-2.59H87.64Z"/><path class="cls-1" d="M112.16,37.79h4.46V64.5h-4.46Z"/><path class="cls-1" d="M147.76,37.79h20.71v3.82h-7.83V64.5h-5.06V41.61h-7.83V37.79Z"/><path class="cls-1" d="M194.2,64.5h-5.06V57c0-2.48-1.5-2.18-4.9-2.18H178V64.5h-4.46V37.79h11.9c7.76,0,9.28,2,9.28,6.14V46a6.73,6.73,0,0,1-4.9,6.67h1.82c2.9.22,2.54,4.43,2.54,4.43V64.5ZM178,41.6V51h5.35c2.79,0,6.34.12,6.31-2.82V44.36c0-3.14-3.66-2.75-6.31-2.75H178Z"/><path class="cls-1" d="M233.85,43.54v1c0,2.75-1.41,4.46-4.55,5.34v.08c3.78.88,5.26,2.86,5.26,5.68v2.17c0,4.12-3.65,6.33-10.71,6.33H212.76V37.39H223.4C230.71,37.4,233.85,39.42,233.85,43.54Zm-16.46-2.32v7.06h7c2.63,0,4.23-.69,4.23-2.82V44c0-1.91-1.09-2.75-3.59-2.75Zm0,10.87v8.2h8.28c2.37,0,3.65-.65,3.65-2.63V55.33c0-2.48-1.35-3.24-4.55-3.24Z"/><path class="cls-1" d="M245.41,37.79v20c0,1.91,3.89,2.59,6.21,2.59s6.21-.69,6.21-2.59v-20h4.49V58.13c0,4.27-3.72,6.71-10.9,6.71s-10.9-2.44-10.9-6.71V37.79Z"/><path class="cls-1" d="M309.24,44.2c0-4.27,4-6.72,11.37-6.72S332,39.92,332,44.2V58.09c0,4.27-4,6.72-11.37,6.72s-11.37-2.44-11.37-6.72ZM314,58.35c0,1.91,2.59,2.63,6.72,2.63s6.71-.73,6.71-2.63V43.93c0-1.91-2.59-2.63-6.71-2.63S314,42,314,43.93Z"/><path class="cls-1" d="M216,33h-4.58l-1.6-4.37h-8.26L200,33H195.9L203,12.88h6Zm-13.72-7.18H209l-3.32-9.28h-.1Z"/><path class="cls-1" d="M183.77,26.54v2.34c0,3.32-2.92,5.21-8.56,5.21s-8.56-1.9-8.56-5.21V18.1c0-3.32,2.92-5.22,8.56-5.22s8.56,1.9,8.56,5.22v1.41h-3.61V17.89c0-1.48-3-2-4.79-2s-4.19.56-4.19,2v11.2c0,1.48,2.36,2,4.19,2s4.79-.53,4.79-2V26.54Z"/><path class="cls-1" d="M139,45h4.35V40.8c0-1.29-2.06-3.35-4.33-3.35H127.4c-2.58,0-4.33,1.91-4.33,3.2v8.1a4.49,4.49,0,0,0,3.7,4.08h11.41a1.54,1.54,0,0,1,1.34,1.44v4.18a1.25,1.25,0,0,1-1.39,1.39H129c-1-.05-1.13-1.39-1.13-1.39V55.82h-4.42v5.62c0,1,1,2.48,3.61,2.48h12.64c2.68,0,4.33-2,4.33-3.56V52c0-1.19-.26-2.89-2.73-2.89h-12c-2,0-1.86-2.12-1.86-2.12V43.07a1.7,1.7,0,0,1,1.8-1.65h7s2.77-.26,2.77,1.19V45Z"/><path class="cls-1" d="M201.2,37.4h4.46V64.11H201.2Z"/><path class="cls-1" d="M269.63,37.4h4.46V64.11h-4.46Z"/><path class="cls-1" d="M281.16,37.79h12.45c7.49,0,10.55,2.33,10.55,6.6V57.9c0,4.27-3.07,6.6-10.55,6.6H281.16Zm4.46,3.81V60.68h9.67c2.38,0,3.81-.69,3.81-2.59V44.2c0-1.91-1.43-2.59-3.81-2.59h-9.67Z"/><path class="cls-1" d="M358.82,64.5h-5.06V57c0-2.48-1.5-2.18-4.9-2.18h-6.22V64.5h-4.46V37.79h11.9c7.76,0,9.28,2,9.28,6.14V46a6.73,6.73,0,0,1-4.9,6.67h1.82c2.9.22,2.54,4.43,2.54,4.43V64.5ZM342.63,41.6V51H348c2.79,0,6.34.12,6.31-2.82V44.36c0-3.14-3.66-2.75-6.31-2.75h-5.35Z"/><path class="cls-1" d="M389.18,64.51h-5.51l-2.13-5.83h-11l-2.13,5.83H363l9.41-26.86h7.37ZM371.5,54.93h9l-4.43-12.38h-.14Z"/><path class="cls-1" d="M116,71.65a8.66,8.66,0,0,0,5.71-1.36s-7.08,16.63-7,17.09a21.72,21.72,0,0,0,2.47-3.88l1.61,1.06a20.15,20.15,0,0,1-2.48,3.91s-2,2.28-3.82,2.2a2.35,2.35,0,0,1-2.27-1.45,3.38,3.38,0,0,1-3.45,1.25c-2.15-.55-2.08-3.37-2.08-3.37a11.06,11.06,0,0,1,2-6c3.37-5.09,7-3.37,7-3.37Zm-7.13,16c1.18-.42,3.76-7.7,3.76-7.7a11.44,11.44,0,0,0-2.47,3.56A9.54,9.54,0,0,0,108.88,87.68Z"/><path class="cls-2" d="M106.52,82.33a13,13,0,0,1,1.75-2.48,7.17,7.17,0,0,1,1.9-1.52,4.17,4.17,0,0,1,2-.51,3.71,3.71,0,0,1,1.87.51l2.48-6.2a4.25,4.25,0,0,0,.91,0,6.83,6.83,0,0,0,1.09-.11c.37-.06.74-.14,1.09-.23a4.91,4.91,0,0,0,1-.34c-.13.28-.36.8-.67,1.57s-.68,1.63-1.08,2.62l-1.28,3.09c-.45,1.07-.87,2.08-1.25,3s-.72,1.74-1,2.41-.44,1.08-.51,1.22c-.73,1.75-.86,2.62-.4,2.62a1,1,0,0,0,.48-.18,3.13,3.13,0,0,0,.71-.63,11.19,11.19,0,0,0,.88-1.19,15.75,15.75,0,0,0,1-1.85l.6.42c-.31.56-.65,1.15-1,1.78a11.23,11.23,0,0,1-1.24,1.72,6.64,6.64,0,0,1-1.53,1.29,3.51,3.51,0,0,1-1.88.51,1.79,1.79,0,0,1-1.2-.45,1.89,1.89,0,0,1-.58-1.44l.37-1h-.07l-.22.39a7.08,7.08,0,0,1-1.45,1.88,2.48,2.48,0,0,1-1.63.59,1.94,1.94,0,0,1-1.45-.6,3,3,0,0,1-.77-1.64,6.56,6.56,0,0,1,.09-2.39A10,10,0,0,1,106.52,82.33Zm2.26,5.93a1.12,1.12,0,0,0,.75-.42,6.06,6.06,0,0,0,.82-1.19c.28-.51.58-1.12.91-1.82s.66-1.46,1-2.29L113.76,79a1,1,0,0,0-.92.09,4.28,4.28,0,0,0-1,.83,10.38,10.38,0,0,0-1.06,1.37,17.1,17.1,0,0,0-1,1.75,12.5,12.5,0,0,0-1.4,3.87C108.25,87.81,108.4,88.26,108.78,88.26Z"/><path class="cls-1" d="M122.88,88.44c2.19-.47,4.71-3.5,4.86-5.17l1.76,1.25s-3.2,6.3-8,6.15a4.7,4.7,0,0,1-4.78-5.76c.39-2,2.74-7.09,7.52-7.53s4.19,4,3.92,4.68a8.1,8.1,0,0,1-7,5.25S120.46,89.1,122.88,88.44Zm.56-6.21c.75-1.21,1.17-2.49.86-2.49s-2.66,5-2.66,5A26.55,26.55,0,0,0,123.44,82.23Z"/><path class="cls-2" d="M121.93,89.16a5.19,5.19,0,0,0,1.48-.26,6.84,6.84,0,0,0,1.69-.81,8.42,8.42,0,0,0,3.06-3.69l.6.42A11,11,0,0,1,127.39,87a10.14,10.14,0,0,1-1.74,1.67,8,8,0,0,1-2,1.09,6.36,6.36,0,0,1-2.15.37,4.59,4.59,0,0,1-2.47-.6,3.4,3.4,0,0,1-1.37-1.59,4.93,4.93,0,0,1-.3-2.29,8.12,8.12,0,0,1,.76-2.68,8.91,8.91,0,0,1,1.58-2.41,8.52,8.52,0,0,1,2-1.58,6.91,6.91,0,0,1,2-.8,5.43,5.43,0,0,1,1.86-.09,2.64,2.64,0,0,1,1.33.54,2.41,2.41,0,0,1,.73,1,3.21,3.21,0,0,1,.2,1.26,4.5,4.5,0,0,1-.27,1.35,6.73,6.73,0,0,1-1.06,1.93,6.35,6.35,0,0,1-1.6,1.46,7.29,7.29,0,0,1-2,.89,6.69,6.69,0,0,1-2.29.21,3,3,0,0,0,.15,1.81A1.22,1.22,0,0,0,121.93,89.16Zm-.24-5.72c-.22.46-.4.9-.56,1.33a8.48,8.48,0,0,0-.36,1.17,3.74,3.74,0,0,0,1.87-1.28,12.76,12.76,0,0,0,1.78-2.87,7.14,7.14,0,0,0,.7-2c.07-.49,0-.78-.1-.86s-.71.12-1.28.84A18.69,18.69,0,0,0,121.69,83.44Z"/><path class="cls-1" d="M142.88,76.33c0,.74,1.64,3.52,4,1.88s1.33-5.44,1.33-5.44a5.06,5.06,0,0,0-6.15-2.68,5.62,5.62,0,0,0-3.68,3.74c-.47,1.72-.55,5.11.78,7.08a11,11,0,0,1,1.88,4.4c0,.47.23,2.39-2.43,3.33-.37,0-3.09.16-2.94-3.56a7.4,7.4,0,0,1,2.92-5.81c-2-2.73-4.33-2.61-6.05.6s-1,7.09,1.17,9a6.66,6.66,0,0,0,8.38.59,8.38,8.38,0,0,0,3-7.64c-.31-2.55-3-4.86-2.62-7.24.31-2,1.17-2.62,1.84-2.47S145.39,74.29,142.88,76.33Z"/><path class="cls-2" d="M143.53,76.54a3.47,3.47,0,0,0,.83-.78,5.37,5.37,0,0,0,.58-1,4.38,4.38,0,0,0,.42-1.71,1.37,1.37,0,0,0-.52-1.24,1.36,1.36,0,0,0-.68-.24,1.66,1.66,0,0,0-.78.14,2.26,2.26,0,0,0-.76.56,2.62,2.62,0,0,0-.56,1A5.51,5.51,0,0,0,142,76a8.65,8.65,0,0,0,1.38,3.14,8.44,8.44,0,0,1,1.06,2.48,7.23,7.23,0,0,1,.15,2.44,6.75,6.75,0,0,1-.67,2.27,9.89,9.89,0,0,1-1.35,2,4.85,4.85,0,0,1-1.65,1.26,6.14,6.14,0,0,1-2,.56,6.45,6.45,0,0,1-2-.11,4.72,4.72,0,0,1-1.76-.75,7.57,7.57,0,0,1-1.66-1.56,6.51,6.51,0,0,1-1-1.76,6.34,6.34,0,0,1-.37-1.85,8.1,8.1,0,0,1,.12-1.84,7.43,7.43,0,0,1,1-2.66,3.42,3.42,0,0,1,1.7-1.46,2.5,2.5,0,0,1,1.53,0,2,2,0,0,1,1.23,1,5.68,5.68,0,0,0-1.25,1.48,10.15,10.15,0,0,0-1,2.11,9.74,9.74,0,0,0-.4,1.59,6.48,6.48,0,0,0,0,1.58,4.39,4.39,0,0,0,.39,1.44,3.48,3.48,0,0,0,.91,1.19,2.61,2.61,0,0,0,1.2.62,2.81,2.81,0,0,0,1.29,0,3.44,3.44,0,0,0,1.22-.62,3.58,3.58,0,0,0,1-1.18,3.45,3.45,0,0,0,.5-1.54,5.17,5.17,0,0,0-.15-1.56,6.89,6.89,0,0,0-.6-1.55c-.27-.51-.56-1-.87-1.55a8.58,8.58,0,0,1-1.39-4.08,8.13,8.13,0,0,1,.62-3.66,5,5,0,0,1,1.07-1.61,4.88,4.88,0,0,1,1.5-1,4.61,4.61,0,0,1,1.78-.38,4.71,4.71,0,0,1,1.91.4A4.07,4.07,0,0,1,147.05,72a3.7,3.7,0,0,1,.77,1.48,4.33,4.33,0,0,1,.1,1.56,4.72,4.72,0,0,1-.4,1.41,3.28,3.28,0,0,1-1,1.33,2,2,0,0,1-1.2.41,1.67,1.67,0,0,1-1.08-.44A1.92,1.92,0,0,1,143.53,76.54Z"/><path class="cls-1" d="M169,84.28c1.1-1.61,2-5.91,5-7.54s4.19.09,4.66.66c.7.84-.31,2.1-1.21,1.9-.51,0-1.21-.82-1.21-.82s-.66.7.08,3.64a17,17,0,0,1,.86,3.6A14.57,14.57,0,0,0,179,82.47l1.51,1.17s-2.14,5-5.75,6.58c-2.54.9-3.47.35-4.85-.9a2.33,2.33,0,0,1-.23-3.33c1.05-1,2.42.86,2.19,2.08,1.45-1.68-.08-4-.2-4.67l-1.11,1.92Z"/><path class="cls-2" d="M176.5,76.84a1.85,1.85,0,0,1,1.51.71,1.19,1.19,0,0,1,.24.6.69.69,0,0,1-.15.53.55.55,0,0,1-.44.2.83.83,0,0,1-.48-.2,2.06,2.06,0,0,1-.46-.47,2.23,2.23,0,0,1-.31-.59c-.66.26-1,.94-1.07,2a6.11,6.11,0,0,0,.19,1.91q.24.86.51,1.68a13.11,13.11,0,0,1,.44,1.72,5.66,5.66,0,0,1,0,2,1.15,1.15,0,0,1-.27.54l-.32.33.05.12a10.11,10.11,0,0,0,1-1c.33-.37.65-.76,1-1.16a14.39,14.39,0,0,0,.83-1.2,8.91,8.91,0,0,0,.6-1.11l.6.42a14.93,14.93,0,0,1-1.09,1.84,17.15,17.15,0,0,1-1.45,1.81,14.21,14.21,0,0,1-1.58,1.47,4.19,4.19,0,0,1-1.47.81,3.71,3.71,0,0,1-1.94.26,3.17,3.17,0,0,1-1.64-.68,3.21,3.21,0,0,1-.73-.93,2.22,2.22,0,0,1-.26-.9,1.37,1.37,0,0,1,.14-.74.72.72,0,0,1,.43-.4.53.53,0,0,1,.52.09,1.21,1.21,0,0,1,.35.54,3,3,0,0,1,.14.86,6.23,6.23,0,0,1-.06,1,1.37,1.37,0,0,0,1.11-.46,2.66,2.66,0,0,0,.71-1.43,3.71,3.71,0,0,0,0-1.37c-.1-.45-.22-.9-.36-1.34s-.27-.88-.4-1.32a3.88,3.88,0,0,1-.14-1.3l.52-1.65-.08,0c-.13.3-.29.65-.47,1s-.37.79-.57,1.2L171,83.54c-.19.38-.37.71-.53,1l-.57-.39c.32-.64.64-1.28,1-1.92s.66-1.28,1-1.93a9.6,9.6,0,0,1,.82-1.46,4.76,4.76,0,0,1,1-1.08,4,4,0,0,1,1.27-.66A4.17,4.17,0,0,1,176.5,76.84Z"/><path class="cls-1" d="M148.85,78c-1.53,3.77-3.37,8.43-3.37,8.43s-.62,3,1.26,3.94,4.3-1.28,4.3-1.28a2.63,2.63,0,0,0,2.15,1.54c3.56.3,6.46-6,6.46-6l-1.52-1.27s-1.75,3.64-2.43,4c0-.27,4-10.14,4-10.14s-4.46.54-5,.17c0,0-3.43,9.43-4.62,9.93,0-.65,4.07-10.3,4.07-10.3S150.55,78.57,148.85,78Z"/><path class="cls-2" d="M152,87.23a7.91,7.91,0,0,1-2.06,2.2,3.76,3.76,0,0,1-1.86.69,1.92,1.92,0,0,1-1.14-.33,2.06,2.06,0,0,1-.71-.92,3.41,3.41,0,0,1-.2-1.42,5.88,5.88,0,0,1,.43-1.82l2.86-7a9.52,9.52,0,0,0,1.95-.09,8.11,8.11,0,0,0,1.9-.48L150,85.72c-.71,1.63-.76,2.44-.15,2.44.25,0,.6-.26,1.06-.77A12.07,12.07,0,0,0,152.46,85l.84-2.17,1.86-4.51a13.34,13.34,0,0,0,1.79,0c.65,0,1.28-.11,1.91-.21l-3.1,7.58c-.71,1.75-.85,2.62-.4,2.62a1,1,0,0,0,.48-.18,3.13,3.13,0,0,0,.71-.63,11.19,11.19,0,0,0,.88-1.19,15.75,15.75,0,0,0,1-1.85l.6.42c-.31.56-.65,1.15-1,1.78a11.23,11.23,0,0,1-1.24,1.72,6.64,6.64,0,0,1-1.53,1.29,3.53,3.53,0,0,1-1.88.51,1.82,1.82,0,0,1-1.13-.39,1.79,1.79,0,0,1-.63-1.23l0-.24.5-1.05H152Z"/><path class="cls-1" d="M162.89,71.68A12.84,12.84,0,0,0,168,71c-.94,2.39-2.81,6.81-2.81,6.81s3.47-.89,4.1,2.12c.67,2.59-1.18,5.81-1.18,5.81a3.26,3.26,0,0,0,1-1.46l1.85.5a6,6,0,0,1-4.92,4.11,6.14,6.14,0,0,1-2.62,1.57c-4.54,1.49-6.64-4-6.64-4Zm1.2,12.55c.89-2.11,1.19-3.08,1.15-4.11-1.18-.16-4.11,8.22-4.11,8.22A14.85,14.85,0,0,0,164.09,84.23Z"/><path class="cls-2" d="M163.06,72.24a4.52,4.52,0,0,0,.86.05,8.67,8.67,0,0,0,1-.09q.51-.08,1-.18c.34-.07.66-.14,1-.22l-2.78,6.86-1,1.57,0,.06.67-.84a3.25,3.25,0,0,1,1.12-1,2.75,2.75,0,0,1,1.24-.28,2.17,2.17,0,0,1,1.51.56,2.82,2.82,0,0,1,.84,1.55,6.33,6.33,0,0,1,0,2.38,11.19,11.19,0,0,1-1.06,3c-.17.34-.34.65-.51.92s-.35.54-.53.8a3,3,0,0,0,1.88-.75,6.48,6.48,0,0,0,1.5-2.35l.65.36a7.85,7.85,0,0,1-2.21,3,4,4,0,0,1-2.58.69,5.76,5.76,0,0,1-3.09,1.85,3.7,3.7,0,0,1-3-.71,3,3,0,0,1-.52-.48c-.2-.22-.41-.47-.62-.74a7.93,7.93,0,0,1-.61-.87,6.07,6.07,0,0,1-.46-.92Zm2.06,7.29a1.24,1.24,0,0,0-.75.29,3.61,3.61,0,0,0-.78.92,14.28,14.28,0,0,0-.87,1.62c-.31.66-.65,1.46-1,2.41L160,89a1.09,1.09,0,0,0,1,0,3.61,3.61,0,0,0,1.09-.81,10.06,10.06,0,0,0,1.11-1.4,17.85,17.85,0,0,0,1-1.79,15.11,15.11,0,0,0,1.4-3.94C165.72,80,165.57,79.53,165.12,79.53Z"/><path class="cls-1" d="M187.13,74.1A2.88,2.88,0,1,1,184.26,71,3,3,0,0,1,187.13,74.1Z"/><path class="cls-1" d="M180.57,78c1.65.56,5.4-1,5.4-1l-4.4,10.45c1.16-.24,2.69-3.88,2.69-3.88l1.51,1.11s-2.77,6-6.09,6c-2.13-.06-3-1.39-2.62-3.34S180.57,78,180.57,78Z"/><path class="cls-2" d="M177.61,87.48a8,8,0,0,1,.61-2.18c.34-.81.7-1.69,1.08-2.63L181,78.52a9.52,9.52,0,0,0,2-.09,8.11,8.11,0,0,0,1.9-.48l-3.1,7.58c-.71,1.75-.85,2.62-.4,2.62a1,1,0,0,0,.48-.18,3.13,3.13,0,0,0,.71-.63,11.19,11.19,0,0,0,.88-1.19,15.75,15.75,0,0,0,1-1.85l.6.42c-.31.56-.65,1.15-1,1.78a11.23,11.23,0,0,1-1.24,1.72,6.64,6.64,0,0,1-1.53,1.29,3.5,3.5,0,0,1-1.87.51,1.87,1.87,0,0,1-.73-.15,1.55,1.55,0,0,1-.61-.47,2,2,0,0,1-.37-.78A2.79,2.79,0,0,1,177.61,87.48Zm8.64-12.37a3,3,0,0,1-.57.87,2.42,2.42,0,0,1-.76.54,2,2,0,0,1-.86.17,1.66,1.66,0,0,1-.85-.26,2.39,2.39,0,0,1-1.11-1.51,3,3,0,0,1,.26-2,2.68,2.68,0,0,1,.57-.81,2.33,2.33,0,0,1,.76-.5,1.76,1.76,0,0,1,.85-.12,2.07,2.07,0,0,1,.83.26,2.49,2.49,0,0,1,1,1.49A2.67,2.67,0,0,1,186.25,75.11Z"/><path class="cls-1" d="M194.54,71.65a8.66,8.66,0,0,0,5.71-1.36s-7.08,16.63-7,17.09a21.72,21.72,0,0,0,2.47-3.88l1.61,1.06a20.15,20.15,0,0,1-2.48,3.91s-2,2.28-3.82,2.2a2.35,2.35,0,0,1-2.27-1.45,3.38,3.38,0,0,1-3.45,1.25c-2.15-.55-2.08-3.37-2.08-3.37a11.06,11.06,0,0,1,2-6c3.37-5.09,7-3.37,7-3.37Zm-7.13,16c1.18-.42,3.76-7.7,3.76-7.7a11.44,11.44,0,0,0-2.47,3.56A9.73,9.73,0,0,0,187.41,87.68Z"/><path class="cls-2" d="M185,82.61a13,13,0,0,1,1.75-2.48,7.17,7.17,0,0,1,1.9-1.52,4.17,4.17,0,0,1,1.95-.51,3.71,3.71,0,0,1,1.87.51l2.48-6.2a4.25,4.25,0,0,0,.91,0,6.83,6.83,0,0,0,1.09-.11c.37-.06.74-.14,1.09-.23a4.69,4.69,0,0,0,1-.34c-.13.28-.36.8-.67,1.57S197.69,75,197.28,76L196,79.05c-.45,1.07-.86,2.08-1.25,3s-.72,1.74-1,2.41-.44,1.08-.51,1.22c-.73,1.75-.86,2.62-.4,2.62a1.06,1.06,0,0,0,.48-.18,3.13,3.13,0,0,0,.71-.63,11.19,11.19,0,0,0,.88-1.19,15.75,15.75,0,0,0,1-1.85l.6.42c-.32.56-.65,1.15-1,1.78a11.23,11.23,0,0,1-1.24,1.72,6.64,6.64,0,0,1-1.53,1.29,3.51,3.51,0,0,1-1.88.51,1.79,1.79,0,0,1-1.2-.45,1.89,1.89,0,0,1-.58-1.44l.37-1h-.07l-.22.39a7.08,7.08,0,0,1-1.45,1.88,2.48,2.48,0,0,1-1.63.59,1.94,1.94,0,0,1-1.45-.6,3,3,0,0,1-.77-1.64,6.34,6.34,0,0,1,.09-2.39A9.87,9.87,0,0,1,185,82.61Zm2.26,5.93a1.12,1.12,0,0,0,.75-.42,6.06,6.06,0,0,0,.82-1.19c.28-.51.58-1.12.91-1.82s.66-1.46,1-2.29l1.49-3.52a1,1,0,0,0-.92.09,4.28,4.28,0,0,0-1,.83,10.38,10.38,0,0,0-1.06,1.37,17.1,17.1,0,0,0-1,1.75,12.5,12.5,0,0,0-1.4,3.87C186.76,88.09,186.91,88.54,187.29,88.54Z"/><path class="cls-1" d="M204.65,74.1A2.88,2.88,0,1,1,201.78,71,3,3,0,0,1,204.65,74.1Z"/><path class="cls-1" d="M198.1,78c1.65.56,5.4-1,5.4-1l-4.4,10.45c1.16-.24,2.69-3.88,2.69-3.88l1.5,1.11s-2.77,6-6.09,6c-2.13-.06-3-1.39-2.62-3.34S198.1,78,198.1,78Z"/><path class="cls-2" d="M195.13,87.55a8,8,0,0,1,.61-2.18c.34-.81.7-1.69,1.08-2.63l1.71-4.15a9.52,9.52,0,0,0,1.95-.09,8.11,8.11,0,0,0,1.9-.48l-3.1,7.58c-.71,1.75-.84,2.62-.4,2.62a1.09,1.09,0,0,0,.49-.18,3.13,3.13,0,0,0,.71-.63,11.19,11.19,0,0,0,.88-1.19,14.48,14.48,0,0,0,1-1.85l.6.42-1,1.78a12,12,0,0,1-1.24,1.72,6.64,6.64,0,0,1-1.53,1.29,3.53,3.53,0,0,1-1.88.51,1.87,1.87,0,0,1-.73-.15,1.55,1.55,0,0,1-.61-.47,2,2,0,0,1-.37-.78A3,3,0,0,1,195.13,87.55Zm8.64-12.36a3,3,0,0,1-.57.87,2.31,2.31,0,0,1-.76.54,2,2,0,0,1-.86.17,1.66,1.66,0,0,1-.85-.26,2.34,2.34,0,0,1-1.1-1.51,3,3,0,0,1,.26-2,2.68,2.68,0,0,1,.57-.81,2.44,2.44,0,0,1,.76-.5,1.72,1.72,0,0,1,.84-.12,2.23,2.23,0,0,1,.83.26,2.49,2.49,0,0,1,1,1.49A2.67,2.67,0,0,1,203.77,75.19Z"/><path class="cls-1" d="M209.9,77.69c4.74,1.45,2.19,7.83,2.19,7.83a10,10,0,0,0,1.14-2l1.57,1.06c-.23,1.14-2.43,4.31-4.85,4.19,0,0-2.86,2.86-6.49,1.49-3.17-1.21-2.41-5.91-1.78-7.52S205.35,76.32,209.9,77.69Zm-2.62,7.44a25.76,25.76,0,0,0,1.61-5.6c-1.33.16-4.35,8.24-3.76,9.2A14.21,14.21,0,0,0,207.28,85.13Z"/><path class="cls-2" d="M208.61,78.12a3.68,3.68,0,0,1,1.94.5A3.37,3.37,0,0,1,211.82,80a4.74,4.74,0,0,1,.51,2,7,7,0,0,1-.31,2.38,11.37,11.37,0,0,1-1.39,3,3.54,3.54,0,0,0,1.6-.89,5.63,5.63,0,0,0,1.33-1.94l.6.42a6.72,6.72,0,0,1-2,2.56,4.45,4.45,0,0,1-2.35.87,6.79,6.79,0,0,1-1.94,1.37,5.47,5.47,0,0,1-2.33.49,3.66,3.66,0,0,1-2.12-.57,3.49,3.49,0,0,1-1.24-1.5,5.17,5.17,0,0,1-.4-2.14,8.57,8.57,0,0,1,1.4-4.61,8,8,0,0,1,1.5-1.72,6.87,6.87,0,0,1,1.86-1.13A6.06,6.06,0,0,1,208.61,78.12Zm.45.81a1.21,1.21,0,0,0-.8.42,5.93,5.93,0,0,0-.84,1.11c-.28.46-.56,1-.85,1.58s-.55,1.2-.79,1.82-.5,1.32-.71,2a12,12,0,0,0-.43,1.76,4.05,4.05,0,0,0,0,1.23c.06.31.21.47.46.47a1.18,1.18,0,0,0,.8-.45,7.51,7.51,0,0,0,.87-1.19A15.18,15.18,0,0,0,207.6,86c.28-.62.55-1.26.79-1.92s.46-1.28.65-1.9.31-1.17.4-1.65a3.66,3.66,0,0,0,.05-1.16C209.43,79.08,209.29,78.93,209.06,78.93Z"/><rect class="cls-1" x="106.39" y="93.56" width="295.64" height="20.6"/><path class="cls-2" d="M263.69,106V70H291V78.7H273.5v3.81h16.26V91.8H273.5v5.51h18.16V106Z"/><path class="cls-2" d="M356.66,106V70h12.51l4.6,18.52L378.91,70h11.93v36h-9.06V93.39L378.39,106H369.7l-3.36-12.61V106Z"/><path class="cls-2" d="M231.57,92.38l9.2-.95s.78,6.84,6.1,6.58,5.15-1.9,5.3-3.14c-1-3.14-11.17-3.58-15.26-6.87-3.51-2.85-3.62-7.65-2.58-11.39,2.21-5.71,7.67-6.57,12-6.65,14.21-.07,13.79,12.56,13.79,12.56h-8.33a5.39,5.39,0,0,0-4.93-4.7c-2.06-.15-4.72.6-4.71,2.51.18,3.31,17.87.6,18.87,13.29.31,3.15.19,12.57-14.16,13.08S231.57,92.38,231.57,92.38Z"/><path class="cls-2" d="M326.69,106V70H354V78.7H336.5v3.81h16.26V91.8H336.5v5.51h18.16V106Z"/><path class="cls-2" d="M307.94,106H294.77V70h13.17c17,0,16.12,14.19,16.16,18.32S325,106,307.94,106Zm-4.59-27.58V97.6s9,1.31,10.86-3.6a38.68,38.68,0,0,0,.67-6,35.49,35.49,0,0,0-.67-5.81C312.34,76.89,303.35,78.42,303.35,78.42Z"/><path d="M233.62,93.69l6.41-.62a7.79,7.79,0,0,0,2.35,4.74,7.09,7.09,0,0,0,4.77,1.51A7.3,7.3,0,0,0,251.94,98a4,4,0,0,0,1.61-3.15,3,3,0,0,0-.68-2,5.4,5.4,0,0,0-2.37-1.41Q249.34,91,245.23,90c-3.53-.87-6-2-7.43-3.22a8.57,8.57,0,0,1-1.59-11.22,8.77,8.77,0,0,1,4.07-3.3,16.24,16.24,0,0,1,6.42-1.13q6.13,0,9.24,2.69A9.48,9.48,0,0,1,259.2,81l-6.59.29a5.63,5.63,0,0,0-1.81-3.62,6.67,6.67,0,0,0-4.17-1.1,7.48,7.48,0,0,0-4.49,1.18,2.37,2.37,0,0,0-1,2,2.52,2.52,0,0,0,1,2c.83.7,2.85,1.42,6.05,2.18a32.19,32.19,0,0,1,7.11,2.35,9,9,0,0,1,3.6,3.32,10.25,10.25,0,0,1-.26,10.44,9.42,9.42,0,0,1-4.4,3.64,18.54,18.54,0,0,1-7.1,1.19q-6.18,0-9.5-2.86T233.62,93.69Z"/><path d="M265.67,104.31V71.7h24.18v5.52h-17.6v7.23h16.37V90H272.25v8.87h18.22v5.49Z"/><path d="M295.55,71.69h12a23.83,23.83,0,0,1,6.21.62,10.92,10.92,0,0,1,4.91,3,14.32,14.32,0,0,1,3.12,5.28,24.09,24.09,0,0,1,1.07,7.71,21.32,21.32,0,0,1-1,6.94A14.48,14.48,0,0,1,318.4,101a11.51,11.51,0,0,1-4.63,2.6,19.92,19.92,0,0,1-5.83.69H295.55Zm6.59,5.52v21.6h4.92a17.76,17.76,0,0,0,4-.31,6.11,6.11,0,0,0,2.66-1.36A6.93,6.93,0,0,0,315.42,94a21.42,21.42,0,0,0,.67-6,19.34,19.34,0,0,0-.67-5.81,7.55,7.55,0,0,0-1.87-3.16,6.18,6.18,0,0,0-3.05-1.53,29.69,29.69,0,0,0-5.41-.31Z"/><path d="M328.48,104.31V71.7h24.18v5.52h-17.6v7.23h16.37V90H335.06v8.87h18.22v5.49Z"/><path d="M358.29,104.31V71.7h9.85L374.06,94l5.85-22.25h9.88v32.61h-6.12V78.64l-6.47,25.67h-6.34l-6.45-25.67v25.67Z"/><path class="cls-3" d="M32.26,19.47S32.52,9,39.8,6.49s17.53.56,17.53.56-10.09-10.32-21.52-6-12,19.3-12,19.3Z"/><path class="cls-4" d="M8.64,74.16C5.31,69.06-1.8,53.09.42,44.32s13-15.09,22.08-16.75S53.67,20,60.88,13.48c.78,3.66-1.93,11.62-11.54,14.2S18.72,34.23,11.52,43.21,7.19,72.49,8.64,74.16Z"/><path class="cls-5" d="M64,15.59S63.77,23.8,60.44,27c-7,6.77-44.18,12-49,29-3.93,14,20.19,31.28,20.19,47.36s-19,22.57-19,22.57,23.69-4.26,23.8-23.56C36.48,86.69,17.4,75,18.29,59s33.4-18.3,41.82-25.4C69.42,25.35,64,15.59,64,15.59Z"/><path class="cls-1" d="M51,45.65c-3.75,1.55-7.74-1.83-7.74-1.83S40.67,56,47.89,61.57a54.71,54.71,0,0,0,15.65,8.15s-1.33,7.65-3.66,9.65C73,85,86.28,97.23,86.5,106c.22,12.2-8.76,24.85-8.76,24.85S93.16,118,92.49,104.33c-1.22-16.08-25.84-26-25.84-26s4.44-7.54,2.58-12.08C66.65,66.28,58,63.18,52.57,60s-7.32-11.42-7.32-11.42A10,10,0,0,0,54,47.87c4.22-2.66,9.1-16.53,9.1-16.53S54.73,44.1,51,45.65Z"/><path class="cls-3" d="M76.44,113.65s-7-2.87-7.78-4.81A3.12,3.12,0,0,1,70,104.7c1.15-.45,4.43.53,4.43.53s1.68-2,3.72-2.13,2.7,2.19,2.61,3.35S76.44,113.65,76.44,113.65Z"/></g></g></svg>