<svg xmlns="http://www.w3.org/2000/svg" viewBox="0 0 391.13 574.03">
    <defs>
        <style>.cls-1{fill:#4d4d4d;}.cls-2{fill:#ffcd00;}.cls-3{fill:#007934;}.cls-4{fill:#e1251b;}.cls-5{fill:#2261a1;}</style>
    </defs>
    <title>Asset 4</title>
    <g id="Layer_2" data-name="Layer 2">
        <g id="Capa_1" data-name="Capa 1">
            <path class="cls-1" d="M23.52,317.36c-21-28.48-28.34-67.43-20.39-103.6,3.71-18.2,11.69-35.49,22.3-50.9A147.31,147.31,0,0,1,66,124.31a145.52,145.52,0,0,1,52.39-19.81c19.3-2.87,35.85-1.5,51.74-4.62,32.32-5.83,62-24.51,87.33-48.78-18,29.95-47.22,55.48-83.34,65.52A132.81,132.81,0,0,1,147,121.57c-9.27,1-16.76,1.61-24.77,3.47A129.63,129.63,0,0,0,77.76,143c-27.36,16.87-48.15,44-58,75.13A150.17,150.17,0,0,0,23.52,317.36Z" />
            <path class="cls-1" d="M275.55,63.37c1,12.8-.41,26.23-5.58,38.59-4.84,12.47-13.28,23.56-23.46,32.55s-22.84,15.45-35.09,20l-35.88,13.93-71.44,27A73.26,73.26,0,0,0,62.85,245.3a75.87,75.87,0,0,0-1,33.31A76.85,76.85,0,0,0,67,294.67l4.08,8.55c1.43,3.09,2.75,6.15,4,9.29,9.81,25,15.73,51.56,16.1,78.28,1.47,53.36-17.67,106.57-52.15,145C66,491.87,78.33,441,74,391.7c-2.32-24.56-8.13-48.74-18.18-71.11L52,312.27l-4.31-8.77A98.88,98.88,0,0,1,40.8,283a97.09,97.09,0,0,1,.65-43C48.4,211.85,69,187.26,96,176.27c13.06-4.83,24.7-8.19,37.11-12.36,12.21-4,24.5-7.86,36.79-11.65l36.87-11.36c12.18-3.29,23.1-7.84,33.12-14.88C260.07,112.52,273.34,89.16,275.55,63.37Z" />
            <path class="cls-1" d="M105.72,85.47c-3.31-15.26-.09-32.23,8.3-46.48A78.73,78.73,0,0,1,200.53,2.22c16.08,3.86,30.59,13.3,39.17,26.4-14.42-5.9-28.16-9-41.62-9.37a94.63,94.63,0,0,0-38.28,7.33A93.4,93.4,0,0,0,127.93,49C118.78,59,111.59,71,105.72,85.47Z" />
            <path class="cls-1" d="M380.88,439.26a138.33,138.33,0,0,0-38-65.58c-15.3-15.26-34.55-26.11-55.12-32.89a51.76,51.76,0,0,0-31.34-60.93c-.2-.08-.34-.25-.54-.32A98.05,98.05,0,0,1,211.2,247.9a99.54,99.54,0,0,1-19.11-37.77c1.92,1,3.65,1.9,5.87,2.88a29.33,29.33,0,0,0,8.35,2.23c11.47,1.69,23.14-4.61,28.71-13.33A199,199,0,0,0,261.13,152a255.16,255.16,0,0,1-32.72,44.61,20.56,20.56,0,0,1-20.26,7.1,17.48,17.48,0,0,1-4.93-1.86c-1.68-.95-3.77-2.36-5.63-3.51l-11.44-7.23a7.16,7.16,0,0,0-8.5.65l-.29.25,0,0a6.57,6.57,0,0,0-2.22,5.12l0,.64a113.61,113.61,0,0,0,21.17,61.45,116.91,116.91,0,0,0,46.4,37.44,10.66,10.66,0,0,0,3.73,2.09l.06,0h0a30.54,30.54,0,0,1,17.21,43.7l-.11.2a10.94,10.94,0,0,0-.83,8.26,10.82,10.82,0,0,0,8.51,7.52h-.37a127.69,127.69,0,0,1,57.88,30.17c16.59,14.67,28.76,34.14,36,55.31a135.08,135.08,0,0,1,4.13,67.24C364.49,533.8,354,555.46,338.77,574c18.58-15.28,32.66-36.55,40.24-60.25A137.59,137.59,0,0,0,380.88,439.26Z" />
            <path class="cls-1" d="M270.27,466.84a16.5,16.5,0,0,0-12.68-12.67,16.18,16.18,0,0,0-14.09,3.63,16.42,16.42,0,0,0-26.78,9,16.94,16.94,0,0,0-.37,3.44,16.43,16.43,0,0,0,4.81,11.63l.05,0,22.29,22.29L265.78,482l.06,0a16.46,16.46,0,0,0,4.8-11.63A16.94,16.94,0,0,0,270.27,466.84Z" />
            <path class="cls-2" d="M29.52,317.36c-21-28.48-28.34-67.43-20.39-103.6,3.71-18.2,11.69-35.49,22.3-50.9A147.31,147.31,0,0,1,72,124.31a145.52,145.52,0,0,1,52.39-19.81c19.3-2.87,35.85-1.5,51.74-4.62,32.32-5.83,62-24.51,87.33-48.78-18,29.95-47.22,55.48-83.34,65.52A132.81,132.81,0,0,1,153,121.57c-9.27,1-16.76,1.61-24.77,3.47A129.63,129.63,0,0,0,83.76,143c-27.36,16.87-48.15,44-58,75.13A150.17,150.17,0,0,0,29.52,317.36Z" />
            <path class="cls-3" d="M281.55,63.37c1,12.8-.41,26.23-5.58,38.59-4.84,12.47-13.28,23.56-23.46,32.55s-22.84,15.45-35.09,20l-35.88,13.93-71.44,27A73.26,73.26,0,0,0,68.85,245.3a75.87,75.87,0,0,0-.95,33.31A76.85,76.85,0,0,0,73,294.67l4.08,8.55c1.43,3.09,2.75,6.15,4,9.29,9.81,25,15.73,51.56,16.1,78.28,1.47,53.36-17.67,106.57-52.15,145C72,491.87,84.33,441,80,391.7c-2.32-24.56-8.13-48.74-18.18-71.11L58,312.27l-4.31-8.77A98.88,98.88,0,0,1,46.8,283a97.09,97.09,0,0,1,.65-43C54.4,211.85,75,187.26,102,176.27c13.06-4.83,24.7-8.19,37.11-12.36,12.21-4,24.5-7.86,36.79-11.65l36.87-11.36c12.18-3.29,23.1-7.84,33.12-14.88C266.07,112.52,279.34,89.16,281.55,63.37Z" />
            <path class="cls-4" d="M111.72,85.47c-3.31-15.26-.09-32.23,8.3-46.48A78.73,78.73,0,0,1,206.53,2.22c16.08,3.86,30.59,13.3,39.17,26.4-14.42-5.9-28.16-9-41.62-9.37a94.63,94.63,0,0,0-38.28,7.33A93.4,93.4,0,0,0,133.93,49C124.78,59,117.59,71,111.72,85.47Z" />
            <path class="cls-5" d="M386.88,439.26a138.33,138.33,0,0,0-38-65.58c-15.3-15.26-34.55-26.11-55.12-32.89a51.76,51.76,0,0,0-31.34-60.93c-.2-.08-.34-.25-.54-.32A98.05,98.05,0,0,1,217.2,247.9a99.54,99.54,0,0,1-19.11-37.77c1.92,1,3.65,1.9,5.87,2.88a29.33,29.33,0,0,0,8.35,2.23c11.47,1.69,23.14-4.61,28.71-13.33A199,199,0,0,0,267.13,152a255.16,255.16,0,0,1-32.72,44.61,20.56,20.56,0,0,1-20.26,7.1,17.48,17.48,0,0,1-4.93-1.86c-1.68-.95-3.77-2.36-5.63-3.51l-11.44-7.23a7.16,7.16,0,0,0-8.5.65l-.29.25,0,0a6.57,6.57,0,0,0-2.22,5.12l0,.64a113.61,113.61,0,0,0,21.17,61.45,116.91,116.91,0,0,0,46.4,37.44,10.66,10.66,0,0,0,3.73,2.09l.06,0h0a30.54,30.54,0,0,1,17.21,43.7l-.11.2a10.94,10.94,0,0,0-.83,8.26,10.82,10.82,0,0,0,8.51,7.52h-.37a127.69,127.69,0,0,1,57.88,30.17c16.59,14.67,28.76,34.14,36,55.31a135.08,135.08,0,0,1,4.13,67.24C370.49,533.8,360,555.46,344.77,574c18.58-15.28,32.66-36.55,40.24-60.25A137.59,137.59,0,0,0,386.88,439.26Z" />
            <path class="cls-4" d="M276.27,466.84a16.5,16.5,0,0,0-12.68-12.67,16.18,16.18,0,0,0-14.09,3.63,16.42,16.42,0,0,0-26.78,9,16.94,16.94,0,0,0-.37,3.44,16.43,16.43,0,0,0,4.81,11.63l.05,0,22.29,22.29L271.78,482l.06,0a16.46,16.46,0,0,0,4.8-11.63A16.94,16.94,0,0,0,276.27,466.84Z" />
        </g>
    </g>
</svg>